<?xml version="1.0" encoding="utf-8"?>
<!-- Generator: Adobe Illustrator 23.0.2, SVG Export Plug-In . SVG Version: 6.00 Build 0)  -->
<svg version="1.1" id="Layer_1" xmlns="http://www.w3.org/2000/svg" xmlns:xlink="http://www.w3.org/1999/xlink" x="0px" y="0px"
	 viewBox="0 0 204.68 52.1" style="enable-background:new 0 0 204.68 52.1;" xml:space="preserve">
<style type="text/css">
	.st0{fill:#17A055;}
	.st1{fill:#292929;}
</style>
<polygon class="st0" points="189.38,24.72 20.37,24.72 32.04,50.21 204.68,50.21 "/>
<g>
	<g>
		<path class="st1" d="M35.19,18.33c0-9.54-7.89-17.3-17.6-17.3C7.89,1.03,0,8.8,0,18.33c0,9.54,7.89,17.3,17.6,17.3
			c1.73,0,3.36-0.32,4.94-0.78l7.17,15.36h3.77l-8.25-16.36C31.1,31.04,35.19,25.17,35.19,18.33z M17.6,32.81
			c-8.12,0-14.72-6.49-14.72-14.47c0-7.98,6.6-14.47,14.72-14.47c8.12,0,14.72,6.49,14.72,14.47c0,5.71-3.41,10.62-8.31,12.97
			l-3.25-6.75l-3.13,0.03l3.67,7.71C20.11,32.59,18.88,32.81,17.6,32.81z"/>
	</g>
</g>
<g>
	<g>
		<path class="st1" d="M57.3,34.44h-2.32v-2.99h-0.07c-0.7,1.44-2.57,3.45-6.16,3.45c-3.8,0-5.77-1.83-6.62-2.89
			c-1.37-1.69-1.69-4.15-1.69-6.2V15.19h2.46v10.6c0,2.43,0.53,4.01,1.37,5.07c1.34,1.51,3.13,1.83,4.47,1.83
			c1.37,0,2.85-0.32,4.08-1.55c1.13-1.13,2.01-2.39,2.01-5.77V15.19h2.46V34.44z"/>
		<path class="st1" d="M83,34.44h-2.46v-3.38h-0.07c-2.11,3.17-5.49,3.84-7.5,3.84c-6.06,0-10.35-4.61-10.35-10.14
			c0-5.14,4.05-10.07,10.35-10.07c2.08,0,5.46,0.67,7.5,3.87h0.07v-3.38H83V34.44z M72.97,32.68c4.15,0,7.71-3.34,7.71-7.85
			c0-4.22-3.27-7.92-7.71-7.92c-4.22,0-7.89,3.06-7.89,7.96C65.08,29.16,68.25,32.68,72.97,32.68z"/>
		<path class="st1" d="M88.96,15.19h2.46v2.78h0.07c1.16-2.71,3.34-3.13,5.42-3.27v2.6c-1.72,0.14-3.2,0.77-4.15,1.9
			c-0.84,1.06-1.34,2.43-1.34,3.98v11.26h-2.46V15.19z"/>
		<path class="st1" d="M103.28,17.41h-4.05v-2.22h4.05V8.4h2.46v6.79h4.61v2.22h-4.61v17.04h-2.46V17.41z"/>
		<path class="st1" d="M112.51,32.3l10.67-14.89h-10.31v-2.22h13.27v2.22l-10.56,14.82h11.19v2.22h-14.26V32.3z"/>
		<path class="st1" d="M130.89,8.4h2.46v26.05h-2.46V8.4z"/>
		<path class="st1" d="M139.41,8.4h2.46v4.44h-2.46V8.4z M139.41,15.19h2.46v19.25h-2.46V15.19z"/>
		<path class="st1" d="M147.92,15.19h2.46v2.46h0.07c0.74-1.16,2.64-2.96,5.91-2.96c2.36,0,4.33,0.6,6.09,2.36
			c1.44,1.41,2.39,3.63,2.39,6.79v10.6h-2.46v-10.6c0-2.5-0.77-4.26-1.83-5.28c-1.34-1.3-3.1-1.65-4.19-1.65
			c-1.09,0-2.85,0.35-4.19,1.65c-1.02,0.99-1.8,2.71-1.8,5.1v10.77h-2.46V15.19z"/>
		<path class="st1" d="M172.46,25.72c0.18,3.77,3.7,6.97,7.46,6.97c3.52-0.07,6.02-2.15,6.9-4.54h2.61
			c-1.34,3.84-5.03,6.76-9.47,6.76c-5.39,0-10.03-4.36-10.03-10.07c0-5.46,4.4-10.03,10-10.14c4.22,0.04,7.22,2.53,8.59,4.93
			c1.13,1.83,1.51,3.7,1.51,5.39c0,0.25-0.04,0.46-0.04,0.7H172.46z M187.49,23.5c-0.77-4.54-4.47-6.58-7.53-6.58
			c-3.03,0-6.79,2.04-7.5,6.58H187.49z"/>
	</g>
</g>
<rect x="361.28" y="2.65" transform="matrix(0.8575 -0.5144 0.5144 0.8575 40.777 194.2325)" class="st1" width="19.56" height="41.7"/>
</svg>
